ExploreSansVariable-ExtraLight.250920-1905.ufo
<glyph name="quotedbl" format="2">
  <advance width="278"/>
  <unicode hex="0022"/>
  <outline>
    <contour>
      <point x="37" y="923" type="line"/>
      <point x="172" y="772" type="line"/>
      <point x="70" y="369" type="line"/>
      <point x="-17" y="520" type="line"/>
    </contour>
    <contour>
      <point x="504" y="923" type="line"/>
      <point x="639" y="772" type="line"/>
      <point x="537" y="369" type="line"/>
      <point x="450" y="520" type="line"/>
    </contour>
  </outline>
</glyph>
<glyph name="quotesingle" format="2">
  <advance width="142"/>
  <unicode hex="0027"/>
  <outline>
    <contour>
      <point x="53" y="772" type="line"/>
      <point x="89" y="772" type="line"/>
      <point x="84" y="508" type="line"/>
      <point x="58" y="508" type="line"/>
    </contour>
  </outline>
</glyph>
<glyph name="two" format="2">
  <advance width="523"/>
  <unicode hex="0032"/>
  <outline>
    <contour>
      <point x="67" y="639" type="line"/>
      <point x="126" y="694"/>
      <point x="174" y="716"/>
      <point x="240" y="716" type="curve" smooth="yes"/>
      <point x="347" y="716"/>
      <point x="439" y="640"/>
      <point x="439" y="537" type="curve" smooth="yes"/>
      <point x="439" y="471"/>
      <point x="421" y="418"/>
      <point x="345" y="326" type="curve"/>
      <point x="352" y="332"/>
      <point x="71" y="20"/>
      <point x="71" y="19" type="curve"/>
      <point x="442" y="19" type="line"/>
      <point x="443" y="0" type="line"/>
      <point x="73" y="0" type="line"/>
      <point x="73" y="36" type="line"/>
      <point x="310" y="314" type="line" smooth="yes"/>
      <point x="412" y="431"/>
      <point x="422" y="456"/>
      <point x="422" y="546" type="curve" smooth="yes"/>
      <point x="422" y="643"/>
      <point x="343" y="703"/>
      <point x="245" y="703" type="curve" smooth="yes"/>
      <point x="184" y="703"/>
      <point x="124" y="670"/>
      <point x="75" y="621" type="curve"/>
    </contour>
  </outline>
</glyph>
<glyph name="three" format="2">
  <advance width="523"/>
  <unicode hex="0033"/>
  <outline>
    <contour>
      <point x="74" y="708" type="line"/>
      <point x="425" y="708" type="line"/>
      <point x="425" y="674" type="line"/>
      <point x="204" y="433" type="line"/>
      <point x="388" y="428"/>
      <point x="467" y="332"/>
      <point x="467" y="212" type="curve"/>
      <point x="467" y="218"/>
      <point x="513" y="-8"/>
      <point x="247" y="-8" type="curve" smooth="yes"/>
      <point x="174" y="-8"/>
      <point x="90" y="25"/>
      <point x="24" y="84" type="curve"/>
      <point x="32" y="98" type="line"/>
      <point x="97" y="31"/>
      <point x="163" y="3"/>
      <point x="236" y="3" type="curve" smooth="yes"/>
      <point x="390" y="3"/>
      <point x="454" y="64"/>
      <point x="454" y="217" type="curve" smooth="yes"/>
      <point x="454" y="338"/>
      <point x="389" y="402"/>
      <point x="248" y="402" type="curve" smooth="yes"/>
      <point x="173" y="402" type="line"/>
      <point x="186" y="435" type="line"/>
      <point x="416" y="696" type="line"/>
      <point x="74" y="696" type="line"/>
    </contour>
  </outline>
</glyph>
<glyph name="four" format="2">
  <advance width="523"/>
  <unicode hex="0034"/>
  <outline>
    <contour>
      <point x="336" y="708" type="line"/>
      <point x="351" y="708" type="line"/>
      <point x="80" y="205" type="line"/>
      <point x="428" y="205" type="line"/>
      <point x="428" y="484" type="line"/>
      <point x="451" y="484" type="line"/>
      <point x="451" y="0" type="line"/>
      <point x="428" y="0" type="line"/>
      <point x="428" y="189" type="line"/>
      <point x="64" y="189" type="line"/>
      <point x="64" y="205" type="line"/>
    </contour>
  </outline>
</glyph>
<glyph name="nine" format="2">
  <advance width="523"/>
  <unicode hex="0039"/>
  <outline>
    <contour>
      <point x="271" y="716" type="curve" smooth="yes"/>
      <point x="419" y="716"/>
      <point x="477" y="617"/>
      <point x="477" y="435" type="curve" smooth="yes"/>
      <point x="477" y="136"/>
      <point x="415" y="-8"/>
      <point x="237" y="-8" type="curve" smooth="yes"/>
      <point x="169" y="-8"/>
      <point x="104" y="13"/>
      <point x="63" y="41" type="curve"/>
      <point x="64" y="55" type="line"/>
      <point x="123" y="18"/>
      <point x="191" y="3"/>
      <point x="255" y="3" type="curve" smooth="yes"/>
      <point x="400" y="3"/>
      <point x="465" y="119"/>
      <point x="465" y="390" type="curve"/>
      <point x="420" y="298"/>
      <point x="369" y="263"/>
      <point x="290" y="263" type="curve" smooth="yes"/>
      <point x="165" y="263"/>
      <point x="62" y="347"/>
      <point x="62" y="483" type="curve" smooth="yes"/>
      <point x="62" y="625"/>
      <point x="135" y="716"/>
    </contour>
    <contour>
      <point x="267" y="710" type="curve" smooth="yes"/>
      <point x="150" y="710"/>
      <point x="75" y="620"/>
      <point x="75" y="488" type="curve" smooth="yes"/>
      <point x="75" y="355"/>
      <point x="134" y="285"/>
      <point x="267" y="285" type="curve" smooth="yes"/>
      <point x="389" y="285"/>
      <point x="464" y="367"/>
      <point x="464" y="487" type="curve" smooth="yes"/>
      <point x="464" y="630"/>
      <point x="396" y="710"/>
    </contour>
  </outline>
</glyph>
<glyph name="at" format="2">
  <advance width="913"/>
  <unicode hex="0040"/>
  <outline>
    <contour>
      <point x="467" y="786" type="curve" smooth="yes"/>
      <point x="682" y="786"/>
      <point x="864" y="634"/>
      <point x="864" y="382" type="curve" smooth="yes"/>
      <point x="864" y="263"/>
      <point x="832" y="194"/>
      <point x="755" y="125" type="curve"/>
      <point x="728" y="132" type="line"/>
      <point x="575" y="218" type="line"/>
      <point x="533" y="162"/>
      <point x="491" y="135"/>
      <point x="436" y="135" type="curve" smooth="yes"/>
      <point x="321" y="135"/>
      <point x="272" y="214"/>
      <point x="272" y="317" type="curve" smooth="yes"/>
      <point x="272" y="484"/>
      <point x="394" y="582"/>
      <point x="501" y="582" type="curve" smooth="yes"/>
      <point x="549" y="582"/>
      <point x="604" y="556"/>
      <point x="626" y="511" type="curve"/>
      <point x="637" y="571" type="line"/>
      <point x="671" y="571" type="line"/>
      <point x="627" y="244" type="line"/>
      <point x="754" y="164" type="line"/>
      <point x="808" y="241"/>
      <point x="833" y="311"/>
      <point x="833" y="395" type="curve" smooth="yes"/>
      <point x="833" y="642"/>
      <point x="636" y="757"/>
      <point x="472" y="757" type="curve" smooth="yes"/>
      <point x="293" y="757"/>
      <point x="90" y="654"/>
      <point x="90" y="371" type="curve" smooth="yes"/>
      <point x="90" y="120"/>
      <point x="272" y="-51"/>
      <point x="493" y="-51" type="curve" smooth="yes"/>
      <point x="558" y="-51"/>
      <point x="650" y="-41"/>
      <point x="676" y="-29" type="curve"/>
      <point x="676" y="-58" type="line"/>
      <point x="614" y="-71"/>
      <point x="530" y="-82"/>
      <point x="489" y="-82" type="curve" smooth="yes"/>
      <point x="305" y="-82"/>
      <point x="59" y="43"/>
      <point x="59" y="375" type="curve" smooth="yes"/>
      <point x="59" y="684"/>
      <point x="312" y="786"/>
    </contour>
    <contour>
      <point x="481" y="548" type="curve" smooth="yes"/>
      <point x="348" y="548"/>
      <point x="300" y="428"/>
      <point x="300" y="322" type="curve" smooth="yes"/>
      <point x="300" y="308"/>
      <point x="298" y="167"/>
      <point x="446" y="167" type="curve" smooth="yes"/>
      <point x="502" y="167"/>
      <point x="597" y="184"/>
      <point x="617" y="371" type="curve" smooth="yes"/>
      <point x="624" y="454" type="line"/>
      <point x="601" y="519"/>
      <point x="544" y="548"/>
    </contour>
  </outline>
</glyph>
<glyph name="I" format="2">
  <advance width="232"/>
  <unicode hex="0049"/>
  <anchor x="133" y="880" name="AccentCenter"/>
  <outline>
    <contour>
      <point x="100" y="708" type="line"/>
      <point x="132" y="708" type="line"/>
      <point x="132" y="0" type="line"/>
      <point x="100" y="0" type="line"/>
    </contour>
  </outline>
</glyph>
<glyph name="O" format="2">
  <advance width="633"/>
  <unicode hex="004F"/>
  <anchor x="326" y="881" name="AccentCenter"/>
  <outline>
    <contour>
      <point x="318" y="716" type="curve" smooth="yes"/>
      <point x="479" y="716"/>
      <point x="568" y="579"/>
      <point x="568" y="354" type="curve" smooth="yes"/>
      <point x="568" y="128"/>
      <point x="479" y="-8"/>
      <point x="318" y="-8" type="curve" smooth="yes"/>
      <point x="156" y="-8"/>
      <point x="64" y="128"/>
      <point x="64" y="354" type="curve" smooth="yes"/>
      <point x="64" y="579"/>
      <point x="156" y="716"/>
    </contour>
    <contour>
      <point x="318" y="688" type="curve" smooth="yes"/>
      <point x="172" y="688"/>
      <point x="96" y="552"/>
      <point x="96" y="354" type="curve" smooth="yes"/>
      <point x="96" y="155"/>
      <point x="172" y="20"/>
      <point x="318" y="20" type="curve" smooth="yes"/>
      <point x="463" y="20"/>
      <point x="536" y="151"/>
      <point x="536" y="354" type="curve" smooth="yes"/>
      <point x="536" y="557"/>
      <point x="463" y="688"/>
    </contour>
  </outline>
</glyph>
<glyph name="P" format="2">
  <advance width="583"/>
  <unicode hex="0050"/>
  <outline>
    <contour>
      <point x="133" y="680" type="line"/>
      <point x="133" y="310" type="line"/>
      <point x="298" y="310" type="line" smooth="yes"/>
      <point x="409" y="310"/>
      <point x="487" y="357"/>
      <point x="487" y="507" type="curve" smooth="yes"/>
      <point x="487" y="622"/>
      <point x="415" y="680"/>
      <point x="327" y="680" type="curve" smooth="yes"/>
    </contour>
    <contour>
      <point x="101" y="708" type="line"/>
      <point x="316" y="708" type="line" smooth="yes"/>
      <point x="443" y="708"/>
      <point x="519" y="634"/>
      <point x="519" y="507" type="curve" smooth="yes"/>
      <point x="519" y="369"/>
      <point x="440" y="282"/>
      <point x="303" y="282" type="curve" smooth="yes"/>
      <point x="133" y="282" type="line"/>
      <point x="133" y="0" type="line"/>
      <point x="101" y="0" type="line"/>
    </contour>
  </outline>
</glyph>
<glyph name="V" format="2">
  <advance width="606"/>
  <unicode hex="0056"/>
  <outline>
    <contour>
      <point x="46" y="708" type="line"/>
      <point x="73" y="708" type="line"/>
      <point x="303" y="32" type="line"/>
      <point x="533" y="708" type="line"/>
      <point x="560" y="708" type="line"/>
      <point x="319" y="0" type="line"/>
      <point x="286" y="0" type="line"/>
    </contour>
  </outline>
</glyph>
<glyph name="Z" format="2">
  <advance width="582"/>
  <unicode hex="005A"/>
  <outline>
    <contour>
      <point x="77" y="708" type="line"/>
      <point x="497" y="708" type="line"/>
      <point x="497" y="682" type="line"/>
      <point x="75" y="6" type="line"/>
      <point x="505" y="6" type="line"/>
      <point x="505" y="0" type="line"/>
      <point x="77" y="0" type="line"/>
      <point x="77" y="26" type="line"/>
      <point x="497" y="702" type="line"/>
      <point x="77" y="702" type="line"/>
    </contour>
  </outline>
</glyph>
<glyph name="grave" format="2">
  <advance width="248"/>
  <unicode hex="0060"/>
  <outline>
    <contour>
      <point x="72" y="901" type="line"/>
      <point x="227" y="746" type="line"/>
      <point x="200" y="721" type="line"/>
      <point x="45" y="874" type="line"/>
    </contour>
  </outline>
</glyph>
<glyph name="a" format="2">
  <advance width="498"/>
  <unicode hex="0061"/>
  <anchor x="267" y="687" name="AccentCenter"/>
  <anchor x="257" y="687" name="Ring"/>
  <outline>
    <contour>
      <point x="240" y="528" type="curve" smooth="yes"/>
      <point x="342" y="528"/>
      <point x="407" y="474"/>
      <point x="407" y="345" type="curve" smooth="yes"/>
      <point x="407" y="50" type="line" smooth="yes"/>
      <point x="407" y="29"/>
      <point x="425" y="16"/>
      <point x="453" y="16" type="curve" smooth="yes"/>
      <point x="466" y="16" type="line"/>
      <point x="466" y="-4" type="line"/>
      <point x="459" y="-6"/>
      <point x="448" y="-8"/>
      <point x="439" y="-8" type="curve" smooth="yes"/>
      <point x="397" y="-8"/>
      <point x="375" y="10"/>
      <point x="375" y="81" type="curve"/>
      <point x="343" y="26"/>
      <point x="295" y="-8"/>
      <point x="203" y="-8" type="curve" smooth="yes"/>
      <point x="109" y="-8"/>
      <point x="48" y="44"/>
      <point x="48" y="138" type="curve" smooth="yes"/>
      <point x="48" y="247"/>
      <point x="124" y="300"/>
      <point x="245" y="300" type="curve" smooth="yes"/>
      <point x="375" y="300" type="line"/>
      <point x="375" y="359" type="line" smooth="yes"/>
      <point x="375" y="453"/>
      <point x="325" y="500"/>
      <point x="240" y="500" type="curve" smooth="yes"/>
      <point x="186" y="500"/>
      <point x="131" y="476"/>
      <point x="96" y="444" type="curve"/>
      <point x="81" y="466" type="line"/>
      <point x="121" y="500"/>
      <point x="171" y="528"/>
    </contour>
    <contour>
      <point x="375" y="272" type="line"/>
      <point x="242" y="272" type="line" smooth="yes"/>
      <point x="125" y="272"/>
      <point x="80" y="222"/>
      <point x="80" y="138" type="curve" smooth="yes"/>
      <point x="80" y="58"/>
      <point x="123" y="20"/>
      <point x="210" y="20" type="curve" smooth="yes"/>
      <point x="279" y="20"/>
      <point x="346" y="58"/>
      <point x="375" y="126" type="curve"/>
    </contour>
  </outline>
</glyph>
<glyph name="l" format="2">
  <advance width="241"/>
  <unicode hex="006C"/>
  <outline>
    <contour>
      <point x="100" y="791" type="line"/>
      <point x="132" y="791" type="line"/>
      <point x="132" y="50" type="line" smooth="yes"/>
      <point x="132" y="32"/>
      <point x="149" y="23"/>
      <point x="168" y="23" type="curve" smooth="yes"/>
      <point x="176" y="23"/>
      <point x="184" y="24"/>
      <point x="197" y="26" type="curve"/>
      <point x="216" y="29" type="line"/>
      <point x="221" y="2" type="line"/>
      <point x="205" y="-3"/>
      <point x="179" y="-8"/>
      <point x="158" y="-8" type="curve" smooth="yes"/>
      <point x="115" y="-8"/>
      <point x="100" y="16"/>
      <point x="100" y="51" type="curve" smooth="yes"/>
    </contour>
  </outline>
</glyph>
<glyph name="q" format="2">
  <advance width="567"/>
  <unicode hex="0071"/>
  <outline>
    <contour>
      <point x="262" y="510" type="curve" smooth="yes"/>
      <point x="130" y="510"/>
      <point x="70" y="435"/>
      <point x="70" y="267" type="curve" smooth="yes"/>
      <point x="70" y="113"/>
      <point x="145" y="13"/>
      <point x="259" y="13" type="curve" smooth="yes"/>
      <point x="351" y="13"/>
      <point x="421" y="60"/>
      <point x="443" y="136" type="curve"/>
      <point x="443" y="396" type="line"/>
      <point x="405" y="467"/>
      <point x="335" y="510"/>
    </contour>
    <contour>
      <point x="449" y="520" type="line"/>
      <point x="458" y="520" type="line"/>
      <point x="458" y="-191" type="line"/>
      <point x="443" y="-191" type="line"/>
      <point x="443" y="82" type="line"/>
      <point x="363" y="15"/>
      <point x="315" y="-8"/>
      <point x="251" y="-8" type="curve" smooth="yes"/>
      <point x="123" y="-8"/>
      <point x="58" y="84"/>
      <point x="58" y="261" type="curve" smooth="yes"/>
      <point x="58" y="445"/>
      <point x="118" y="528"/>
      <point x="258" y="528" type="curve" smooth="yes"/>
      <point x="321" y="528"/>
      <point x="381" y="496"/>
      <point x="450" y="428" type="curve"/>
    </contour>
  </outline>
</glyph>
<glyph name="t" format="2">
  <advance width="372"/>
  <unicode hex="0074"/>
  <outline>
    <contour>
      <point x="136" y="671" type="line"/>
      <point x="168" y="687" type="line"/>
      <point x="168" y="520" type="line"/>
      <point x="307" y="520" type="line"/>
      <point x="307" y="492" type="line"/>
      <point x="168" y="492" type="line"/>
      <point x="168" y="92" type="line" smooth="yes"/>
      <point x="168" y="45"/>
      <point x="194" y="19"/>
      <point x="239" y="19" type="curve" smooth="yes"/>
      <point x="248" y="19"/>
      <point x="273" y="19"/>
      <point x="285" y="22" type="curve"/>
      <point x="312" y="28" type="line"/>
      <point x="316" y="4" type="line"/>
      <point x="278" y="-6"/>
      <point x="254" y="-8"/>
      <point x="233" y="-8" type="curve" smooth="yes"/>
      <point x="174" y="-8"/>
      <point x="136" y="28"/>
      <point x="136" y="92" type="curve" smooth="yes"/>
      <point x="136" y="492" type="line"/>
      <point x="20" y="492" type="line"/>
      <point x="20" y="520" type="line"/>
      <point x="136" y="520" type="line"/>
    </contour>
  </outline>
</glyph>
<glyph name="y" format="2">
  <advance width="532"/>
  <unicode hex="0079"/>
  <anchor x="293" y="687" name="AccentCenter"/>
  <outline>
    <contour>
      <point x="66" y="520" type="line"/>
      <point x="76" y="520" type="line"/>
      <point x="263" y="33" type="line"/>
      <point x="270" y="25" type="line"/>
      <point x="273" y="33" type="line"/>
      <point x="456" y="520" type="line"/>
      <point x="484" y="520" type="line"/>
      <point x="200" y="-193" type="line"/>
      <point x="178" y="-193" type="line"/>
      <point x="262" y="19" type="line"/>
    </contour>
  </outline>
</glyph>
<glyph name="braceleft" format="2">
  <advance width="263"/>
  <unicode hex="007B"/>
  <outline>
    <contour>
      <point x="255" y="811" type="curve"/>
      <point x="255" y="792" type="line"/>
      <point x="178" y="792"/>
      <point x="126" y="713"/>
      <point x="131" y="644" type="curve"/>
      <point x="168" y="511" type="line"/>
      <point x="168" y="482"/>
      <point x="177" y="419"/>
      <point x="111" y="371" type="curve"/>
      <point x="170" y="345"/>
      <point x="168" y="263"/>
      <point x="168" y="253" type="curve"/>
      <point x="131" y="96" type="line"/>
      <point x="129" y="17"/>
      <point x="171" y="-48"/>
      <point x="255" y="-48" type="curve"/>
      <point x="255" y="-69" type="line"/>
      <point x="176" y="-67"/>
      <point x="93" y="4"/>
      <point x="101" y="99" type="curve"/>
      <point x="133" y="268" type="line"/>
      <point x="137" y="320"/>
      <point x="78" y="366"/>
      <point x="32" y="366" type="curve"/>
      <point x="32" y="382" type="line"/>
      <point x="90" y="382"/>
      <point x="138" y="440"/>
      <point x="133" y="500" type="curve"/>
      <point x="98" y="644" type="line"/>
      <point x="90" y="719"/>
      <point x="156" y="811"/>
    </contour>
  </outline>
</glyph>
<glyph name="braceright" format="2">
  <advance width="263"/>
  <unicode hex="007D"/>
  <outline>
    <contour>
      <point x="32" y="811" type="line"/>
      <point x="131" y="811"/>
      <point x="197" y="719"/>
      <point x="190" y="644" type="curve"/>
      <point x="154" y="500" type="line"/>
      <point x="149" y="440"/>
      <point x="197" y="382"/>
      <point x="255" y="382" type="curve"/>
      <point x="255" y="366" type="line"/>
      <point x="210" y="366"/>
      <point x="150" y="320"/>
      <point x="154" y="268" type="curve"/>
      <point x="186" y="99" type="line"/>
      <point x="194" y="4"/>
      <point x="111" y="-67"/>
      <point x="32" y="-69" type="curve"/>
      <point x="32" y="-48" type="line"/>
      <point x="116" y="-48"/>
      <point x="158" y="17"/>
      <point x="156" y="96" type="curve"/>
      <point x="120" y="253" type="line"/>
      <point x="120" y="263"/>
      <point x="117" y="345"/>
      <point x="176" y="371" type="curve"/>
      <point x="111" y="419"/>
      <point x="120" y="482"/>
      <point x="120" y="511" type="curve"/>
      <point x="156" y="644" type="line"/>
      <point x="161" y="713"/>
      <point x="110" y="792"/>
      <point x="32" y="792" type="curve"/>
    </contour>
  </outline>
</glyph>
<glyph name="sterling" format="2">
  <advance width="580"/>
  <unicode hex="00A3"/>
  <outline>
    <contour>
      <point x="349" y="716" type="curve" smooth="yes"/>
      <point x="457" y="716"/>
      <point x="517" y="652"/>
      <point x="530" y="636" type="curve"/>
      <point x="527" y="622" type="line"/>
      <point x="468" y="676"/>
      <point x="421" y="698"/>
      <point x="342" y="698" type="curve" smooth="yes"/>
      <point x="255" y="698"/>
      <point x="150" y="645"/>
      <point x="150" y="544" type="curve" smooth="yes"/>
      <point x="150" y="499"/>
      <point x="159" y="468"/>
      <point x="212" y="348" type="curve"/>
      <point x="396" y="348" type="line"/>
      <point x="396" y="328" type="line"/>
      <point x="217" y="328" type="line"/>
      <point x="225" y="299"/>
      <point x="229" y="274"/>
      <point x="229" y="252" type="curve" smooth="yes"/>
      <point x="229" y="117"/>
      <point x="170" y="64"/>
      <point x="98" y="20" type="curve"/>
      <point x="511" y="20" type="line"/>
      <point x="511" y="0" type="line"/>
      <point x="64" y="0" type="line"/>
      <point x="64" y="42" type="line"/>
      <point x="178" y="73"/>
      <point x="210" y="157"/>
      <point x="210" y="269" type="curve" smooth="yes"/>
      <point x="210" y="286"/>
      <point x="206" y="306"/>
      <point x="201" y="328" type="curve"/>
      <point x="35" y="328" type="line"/>
      <point x="35" y="348" type="line"/>
      <point x="196" y="348" type="line"/>
      <point x="168" y="400"/>
      <point x="134" y="475"/>
      <point x="134" y="536" type="curve" smooth="yes"/>
      <point x="134" y="576"/>
      <point x="170" y="716"/>
    </contour>
  </outline>
</glyph>
<glyph name="AE" format="2">
  <advance width="887"/>
  <unicode hex="00C6"/>
  <outline>
    <contour>
      <point x="388" y="708" type="line"/>
      <point x="816" y="708" type="line"/>
      <point x="816" y="693" type="line"/>
      <point x="409" y="693" type="line"/>
      <point x="409" y="402" type="line"/>
      <point x="738" y="402" type="line"/>
      <point x="738" y="381" type="line"/>
      <point x="409" y="381" type="line"/>
      <point x="409" y="16" type="line"/>
      <point x="816" y="16" type="line"/>
      <point x="816" y="0" type="line"/>
      <point x="403" y="0" type="line"/>
      <point x="403" y="199" type="line"/>
      <point x="164" y="199" type="line"/>
      <point x="70" y="0" type="line"/>
      <point x="60" y="0" type="line"/>
    </contour>
    <contour>
      <point x="403" y="687" type="line"/>
      <point x="180" y="214" type="line"/>
      <point x="403" y="214" type="line"/>
    </contour>
  </outline>
</glyph>
<glyph name="ae" format="2">
  <advance width="830"/>
  <unicode hex="00E6"/>
  <outline>
    <contour>
      <point x="260" y="528" type="curve" smooth="yes"/>
      <point x="340" y="528"/>
      <point x="395" y="497"/>
      <point x="412" y="448" type="curve"/>
      <point x="459" y="504"/>
      <point x="510" y="528"/>
      <point x="596" y="528" type="curve" smooth="yes"/>
      <point x="707" y="528"/>
      <point x="771" y="431"/>
      <point x="771" y="305" type="curve" smooth="yes"/>
      <point x="771" y="272"/>
      <point x="770" y="256"/>
      <point x="768" y="250" type="curve"/>
      <point x="407" y="250" type="line"/>
      <point x="407" y="214"/>
      <point x="391" y="15"/>
      <point x="590" y="15" type="curve" smooth="yes"/>
      <point x="656" y="15"/>
      <point x="696" y="24"/>
      <point x="764" y="90" type="curve"/>
      <point x="780" y="75" type="line"/>
      <point x="717" y="12"/>
      <point x="645" y="-8"/>
      <point x="602" y="-8" type="curve" smooth="yes"/>
      <point x="513" y="-8"/>
      <point x="455" y="25"/>
      <point x="410" y="94" type="curve"/>
      <point x="376" y="54"/>
      <point x="308" y="-8"/>
      <point x="210" y="-8" type="curve" smooth="yes"/>
      <point x="106" y="-8"/>
      <point x="53" y="42"/>
      <point x="53" y="145" type="curve" smooth="yes"/>
      <point x="53" y="245"/>
      <point x="122" y="302"/>
      <point x="269" y="302" type="curve" smooth="yes"/>
      <point x="393" y="302" type="line"/>
      <point x="393" y="352" type="line" smooth="yes"/>
      <point x="393" y="450"/>
      <point x="352" y="499"/>
      <point x="264" y="499" type="curve" smooth="yes"/>
      <point x="205" y="499"/>
      <point x="161" y="480"/>
      <point x="106" y="435" type="curve"/>
      <point x="79" y="446" type="line"/>
      <point x="148" y="505"/>
      <point x="197" y="528"/>
    </contour>
    <contour>
      <point x="393" y="269" type="line"/>
      <point x="257" y="269" type="line" smooth="yes"/>
      <point x="122" y="269"/>
      <point x="70" y="228"/>
      <point x="70" y="140" type="curve" smooth="yes"/>
      <point x="70" y="59"/>
      <point x="118" y="19"/>
      <point x="216" y="19" type="curve" smooth="yes"/>
      <point x="283" y="19"/>
      <point x="362" y="71"/>
      <point x="393" y="113" type="curve"/>
    </contour>
    <contour>
      <point x="581" y="503" type="curve" smooth="yes"/>
      <point x="488" y="503"/>
      <point x="407" y="458"/>
      <point x="407" y="286" type="curve"/>
      <point x="759" y="286" type="line"/>
      <point x="759" y="320" type="line" smooth="yes"/>
      <point x="759" y="438"/>
      <point x="696" y="503"/>
    </contour>
  </outline>
</glyph>
<glyph name="acutecomb" format="2">
  <unicode hex="0301"/>
  <anchor x="0" y="830" name="_AccentCenter"/>
  <outline>
    <contour>
      <point x="67" y="932" type="line"/>
      <point x="114" y="908" type="line"/>
      <point x="-75" y="757" type="line"/>
      <point x="-104" y="778" type="line"/>
    </contour>
  </outline>
</glyph>
<glyph name="Euro" format="2">
  <advance width="646"/>
  <unicode hex="20AC"/>
  <outline>
    <contour>
      <point x="399" y="716" type="curve" smooth="yes"/>
      <point x="494" y="716"/>
      <point x="543" y="698"/>
      <point x="608" y="627" type="curve"/>
      <point x="590" y="611" type="line"/>
      <point x="512" y="689"/>
      <point x="473" y="688"/>
      <point x="395" y="688" type="curve"/>
      <point x="358" y="688"/>
      <point x="204" y="676"/>
      <point x="149" y="488" type="curve"/>
      <point x="487" y="488" type="line"/>
      <point x="473" y="448" type="line"/>
      <point x="135" y="448" type="line"/>
      <point x="130" y="419"/>
      <point x="129" y="387"/>
      <point x="129" y="352" type="curve" smooth="yes"/>
      <point x="129" y="328"/>
      <point x="130" y="306"/>
      <point x="131" y="288" type="curve"/>
      <point x="414" y="288" type="line"/>
      <point x="403" y="248" type="line"/>
      <point x="143" y="248" type="line"/>
      <point x="150" y="214"/>
      <point x="201" y="20"/>
      <point x="377" y="20" type="curve" smooth="yes"/>
      <point x="425" y="20"/>
      <point x="503" y="21"/>
      <point x="597" y="99" type="curve"/>
      <point x="610" y="75" type="line"/>
      <point x="555" y="37"/>
      <point x="487" y="-8"/>
      <point x="383" y="-8" type="curve" smooth="yes"/>
      <point x="328" y="-8"/>
      <point x="173" y="26"/>
      <point x="122" y="248" type="curve"/>
      <point x="34" y="248" type="line"/>
      <point x="34" y="288" type="line"/>
      <point x="113" y="288" type="line"/>
      <point x="112" y="310"/>
      <point x="111" y="329"/>
      <point x="111" y="352" type="curve" smooth="yes"/>
      <point x="111" y="389"/>
      <point x="112" y="419"/>
      <point x="117" y="448" type="curve"/>
      <point x="34" y="448" type="line"/>
      <point x="34" y="488" type="line"/>
      <point x="127" y="488" type="line"/>
      <point x="132" y="516"/>
      <point x="190" y="716"/>
    </contour>
  </outline>
</glyph>
